<svg width="31" height="20" viewBox="0 0 31 20" fill="none" xmlns="http://www.w3.org/2000/svg">
<path fill-rule="evenodd" clip-rule="evenodd" d="M8.20024 0H7.70326V4.53058C3.81782 4.78632 0.745476 8.01889 0.745476 11.969C0.745476 14.7307 2.24722 17.1417 4.47865 18.4298H0.496984C0.222507 18.4298 0 18.6523 0 18.9268C0 19.2013 0.222508 19.4238 0.496984 19.4238H8.19726H8.20024H8.20322L25.7147 19.4238H25.7189C28.235 19.4238 30.2746 17.3842 30.2746 14.8681C30.2746 12.52 28.4982 10.5868 26.2159 10.3392V6.7507C26.2159 6.47623 25.9934 6.25372 25.7189 6.25372C25.4445 6.25372 25.222 6.47623 25.222 6.7507V8.03458H22.3643V2.1536H20.1072C19.8327 2.1536 19.6102 2.37611 19.6102 2.65058C19.6102 2.92506 19.8327 3.14757 20.1072 3.14757H21.3703V8.03458H19.838V5.95916L19.3791 5.92386C18.1863 5.83211 17.3546 5.67757 16.6383 5.34961C15.9285 5.02463 15.2912 4.51026 14.5266 3.62938C13.3133 2.23159 12.4478 1.3045 11.5233 0.744838C10.5659 0.165199 9.58457 0 8.20024 0ZM19.5195 9.02855C18.3861 9.74378 17.0582 10.0028 15.4102 10.0672C15.46 10.2565 15.5026 10.4488 15.5376 10.6437H21.3707C21.3705 10.6369 21.3703 10.63 21.3703 10.623V9.02855H19.5195ZM15.0759 9.0832C16.7186 9.04252 17.8902 8.82882 18.844 8.27574V6.87485C17.8263 6.77419 16.9895 6.60358 16.2245 6.25336C15.3411 5.84888 14.5949 5.22433 13.776 4.28094C12.5448 2.86249 11.7773 2.06049 11.0086 1.59513C10.3717 1.2096 9.70776 1.04107 8.69723 1.00274V4.53058C11.5762 4.72008 14.0088 6.54399 15.0759 9.0832ZM25.222 9.68229V10.3392C22.9397 10.5868 21.1632 12.52 21.1632 14.8681C21.1632 16.3098 21.8329 17.5951 22.8782 18.4298L13.8313 18.4298C16.0448 17.6941 17.7521 15.6257 17.7874 13.0044H19.1154L25.222 9.68229ZM25.222 13.0494V11.3408C24.9241 11.3824 24.6381 11.4608 24.3686 11.5713L25.222 13.0494ZM26.2159 11.3408V12.9774L27.0356 11.5577C26.776 11.4543 26.5014 11.3806 26.2159 11.3408ZM24.3686 18.165L25.222 16.6869V18.3954C24.9241 18.3539 24.6381 18.2754 24.3686 18.165ZM26.2159 16.759V18.3954C26.5014 18.3556 26.776 18.2819 27.0355 18.1786L26.2159 16.759ZM27.8985 17.6853C28.1294 17.5064 28.3377 17.2998 28.5184 17.0704L27.056 16.2261L27.8985 17.6853ZM29.0186 16.2115C29.1276 15.944 29.205 15.6604 29.2463 15.3651H27.5527L29.0186 16.2115ZM29.2463 14.3711C29.205 14.0759 29.1277 13.7923 29.0187 13.5249L27.553 14.3711H29.2463ZM28.5185 12.666C28.3378 12.4365 28.1294 12.2299 27.8985 12.0509L27.0559 13.5104L28.5185 12.666ZM23.5107 12.0734C23.2857 12.2514 23.0827 12.4561 22.9064 12.6826L24.3404 13.5105L23.5107 12.0734ZM22.4113 13.5444C22.3065 13.8061 22.2318 14.0831 22.1916 14.3711H23.8431L22.4113 13.5444ZM22.1916 15.3651C22.2318 15.6532 22.3065 15.9302 22.4114 16.1919L23.8435 15.3651H22.1916ZM22.9065 17.0538L24.3403 16.226L23.5107 17.6629C23.2857 17.4849 23.0827 17.2803 22.9065 17.0538ZM11.1522 17.6423C11.1876 17.6491 11.2231 17.6555 11.2587 17.6615C11.508 17.5273 11.7474 17.3772 11.9757 17.2125L9.64608 14.4456L10.8899 17.8451C10.9729 17.807 11.055 17.7673 11.1361 17.7258L11.1522 17.6423ZM16.7933 13.0044C16.7554 15.3459 15.1111 17.1496 13.0732 17.6108C14.408 16.4568 15.329 14.8372 15.5837 13.0044H16.7933ZM15.6549 12.0105H18.8625L19.5477 11.6377H15.6478C15.6526 11.7476 15.655 11.858 15.655 11.969L15.6549 12.0105ZM14.457 10.352C14.3513 9.9417 14.2063 9.54719 14.0262 9.17271L10.8982 10.9857L14.457 10.352ZM13.5277 8.3128C13.2897 7.96664 13.0188 7.64484 12.7195 7.3519L10.4001 10.1255L13.5277 8.3128ZM11.9581 6.71295C11.6185 6.46969 11.2543 6.25853 10.87 6.08392L9.63748 9.48805L11.9581 6.71295ZM9.93595 5.74406C9.53712 5.63309 9.12276 5.55942 8.69685 5.52704L8.70293 9.14953L9.93595 5.74406ZM7.70288 5.5271C7.27656 5.55956 6.8618 5.63339 6.46261 5.74459L7.70896 9.15111L7.70288 5.5271ZM5.52866 6.08474C5.14325 6.26 4.77808 6.47202 4.43764 6.71631L6.77575 9.49328L5.52866 6.08474ZM3.67683 7.35595C3.3765 7.65047 3.10481 7.97409 2.86632 8.32225L6.01517 10.1332L3.67683 7.35595ZM2.36933 9.18305C2.189 9.55978 2.04411 9.95671 1.93897 10.3695L5.5193 10.9946L2.36933 9.18305ZM1.76883 11.3488C1.74939 11.5529 1.73945 11.7598 1.73945 11.969C1.73945 12.1856 1.7501 12.3997 1.77092 12.6109L5.34855 11.9738L1.76883 11.3488ZM1.94437 13.5896C2.05089 14.002 2.19713 14.3984 2.37874 14.7746L5.52264 12.9524L1.94437 13.5896ZM2.87863 15.6337C3.11827 15.9811 3.39105 16.3038 3.69238 16.5973L6.02144 13.8122L2.87863 15.6337ZM4.45534 17.2344C4.79652 17.4775 5.16234 17.6883 5.54832 17.8622L6.78378 14.45L4.45534 17.2344ZM7.72451 18.4126C7.29799 18.3815 6.88295 18.3091 6.48341 18.1992L7.71843 14.7883L7.72451 18.4126ZM9.95695 18.1881C9.55842 18.3005 9.14426 18.3756 8.71847 18.4094L8.71239 14.7865L9.95695 18.1881ZM12.735 16.571C13.0332 16.2771 13.303 15.9544 13.5399 15.6074L10.4062 13.8052L12.735 16.571ZM14.0355 14.7458C14.2143 14.3708 14.358 13.9758 14.4624 13.5651L10.9014 12.9433L14.0355 14.7458ZM14.632 12.5857L11.0726 11.9642L14.6299 11.3308C14.6505 11.5408 14.661 11.7537 14.661 11.969C14.661 12.177 14.6512 12.3827 14.632 12.5857ZM24.3437 9.02855L22.3643 10.1054V9.02855H24.3437Z" fill="#333333"/>
</svg>
